<svg xmlns="http://www.w3.org/2000/svg" xmlns:xlink="http://www.w3.org/1999/xlink" width="4419" height="4051" viewBox="0 0 4419 4051"><defs><clipPath id="b"><rect width="4419" height="4051"/></clipPath></defs><g id="a" clip-path="url(#b)"><rect width="4419" height="4051" fill="#fff"/><ellipse cx="861" cy="299" rx="861" ry="299" transform="translate(1349 3087)" fill="#156cdd"/><ellipse cx="452.5" cy="157" rx="452.5" ry="157" transform="translate(1758 3229)" fill="#fff"/><path d="M1136,0c627.4,0,1136,508.6,1136,1136S1270.507,2958.741,1138.724,3013.211C1022.756,2965.77,0,1763.4,0,1136S508.6,0,1136,0Z" transform="translate(1074 366)" fill="#0795ff"/><circle cx="827.5" cy="827.5" r="827.5" transform="translate(1383 672)" fill="#fff"/><circle cx="797" cy="797" r="797" transform="translate(1413 703)" fill="#0795ff"/><path d="M9063.407,5669s24.939-1.82,50.123-38.643c60.467,82.452,111.609,12.707,119.983-.154,50.55,72.4,101.233,29.837,119.434.154,59.366,79.526,106.689,18.762,120.129,0,42.564,58.805,91.008,44.244,119.849,0,58.245,80.086,109.512,16.307,119.288-.84,58.412,82.659,109.777,16.51,120.205.684,55.339,82.485,114.351,12.767,119.809-.294,21.818,34.984,49.635,39.588,49.635,39.588l.662,580.255h53.851l.331,66.111H9008.921v-66.342h54.925Z" transform="translate(-7322 -4365)" fill="#fff"/><rect width="372" height="324" rx="37" transform="translate(2238 1367)" fill="#0795ff"/><path d="M8993.6,5552.369c-.068-1.319,115.857-138.774,115.857-138.774h836.024l125.632,139.337s.356,24.785,0,50.253c-12.733,35.672-65.233,99.464-118.934,0-18.457,36.4-61.522,100.385-119.764,0-13.122,17.947-54.956,112.689-118.525,0-15.177,21.023-59.472,110.229-120.992,0-7.537,16.1-56.6,112.689-119.178,0-4.481,12.409-60.465,115.148-120.6,0-7.533,15.485-59.826,113.3-119.565,0,.064,5.026-60.355,121-119.955-2.44-18.831,60.038-84.455,87.11-120,0C8994.031,5599.972,8992.873,5571.146,8993.6,5552.369Z" transform="translate(-7322 -4365)" fill="#fff"/><rect width="312" height="514" rx="26" transform="translate(1836 1367)" fill="#0795ff"/><circle cx="20.5" cy="20.5" r="20.5" transform="translate(2089 1604)" fill="#fff"/></g></svg>